<svg width="76" height="54" viewBox="0 0 76 54" fill="none" xmlns="http://www.w3.org/2000/svg">
<path d="M23.6 52C25.5096 52 27.3409 51.2474 28.6912 49.9079C30.0414 48.5684 30.8 46.7515 30.8 44.8571V16.2857C30.8 12.4969 29.2829 8.86328 26.5823 6.18419C23.8818 3.5051 20.2191 2 16.4 2M16.4 2C12.5809 2 8.91819 3.5051 6.21766 6.18419C3.51714 8.86328 2 12.4969 2 16.2857V44.8571C2 46.7515 2.75857 48.5684 4.10883 49.9079C5.45909 51.2474 7.29044 52 9.2 52H66.8C68.7096 52 70.5409 51.2474 71.8912 49.9079C73.2414 48.5684 74 46.7515 74 44.8571V16.2857C74 12.4969 72.4829 8.86328 69.7823 6.18419C67.0818 3.5051 63.4191 2 59.6 2H16.4ZM2 23.4286H74M52.4 23.4286V34.1429" stroke="currentColor" stroke-width="4" stroke-linecap="round" stroke-linejoin="round"/>
</svg>
