<svg width="31" height="30" viewBox="0 0 31 30" fill="none" xmlns="http://www.w3.org/2000/svg">
<path d="M12.9269 4.58333C12.9269 3.36776 12.444 2.20197 11.5845 1.34243C10.725 0.482886 9.55916 0 8.34359 0C7.12801 0 5.96222 0.482886 5.10268 1.34243C4.24314 2.20197 3.76025 3.36776 3.76025 4.58333C3.76025 5.79891 4.24314 6.9647 5.10268 7.82424C5.96222 8.68378 7.12801 9.16667 8.34359 9.16667C9.55916 9.16667 10.725 8.68378 11.5845 7.82424C12.444 6.9647 12.9269 5.79891 12.9269 4.58333ZM5.42692 4.58333C5.42692 4.20031 5.50236 3.82104 5.64894 3.46717C5.79551 3.11331 6.01035 2.79178 6.28119 2.52094C6.55203 2.2501 6.87356 2.03526 7.22743 1.88868C7.58129 1.74211 7.96057 1.66667 8.34359 1.66667C8.72661 1.66667 9.10588 1.74211 9.45975 1.88868C9.81361 2.03526 10.1351 2.2501 10.406 2.52094C10.6768 2.79178 10.8917 3.11331 11.0382 3.46717C11.1848 3.82104 11.2603 4.20031 11.2603 4.58333C11.2603 5.35688 10.953 6.09875 10.406 6.64573C9.859 7.19271 9.11714 7.5 8.34359 7.5C7.57004 7.5 6.82817 7.19271 6.28119 6.64573C5.73421 6.09875 5.42692 5.35688 5.42692 4.58333ZM2.51025 10.8333H9.48192C9.20859 11.35 9.00525 11.91 8.88525 12.5H2.51025C2.28924 12.5 2.07728 12.5878 1.921 12.7441C1.76472 12.9004 1.67692 13.1123 1.67692 13.3333V14.1667C1.67692 16.2667 3.50859 18.5233 6.83692 19.05C6.30025 19.4167 5.85359 19.905 5.53525 20.4733C2.01859 19.5217 0.0102539 16.8117 0.0102539 14.1667V13.3333C0.0102539 12.6703 0.273646 12.0344 0.742487 11.5656C1.21133 11.0967 1.84721 10.8333 2.51025 10.8333ZM11.4753 10.8333C12.3153 9.81667 13.5869 9.16667 15.0103 9.16667C16.0084 9.16493 16.9796 9.48976 17.7759 10.0916C18.5721 10.6935 19.1496 11.5393 19.4203 12.5C19.6615 13.3575 19.6479 14.2667 19.3811 15.1166C19.1144 15.9665 18.606 16.7203 17.918 17.2862C17.2301 17.852 16.3923 18.2054 15.5069 18.3032C14.6215 18.4009 13.7268 18.2388 12.9319 17.8367C12.3199 17.5252 11.7858 17.0802 11.3689 16.5346C10.952 15.9889 10.663 15.3566 10.5233 14.6843C10.3837 14.0119 10.3968 13.3168 10.5619 12.6503C10.7269 11.9837 11.038 11.3628 11.4753 10.8333ZM12.3769 12.5C12.2128 12.8463 12.1184 13.2214 12.0993 13.6042C12.0801 13.9869 12.1365 14.3696 12.2653 14.7305C12.5253 15.4594 13.0643 16.0551 13.7636 16.3867C14.4629 16.7182 15.2652 16.7583 15.9941 16.4983C16.723 16.2382 17.3187 15.6993 17.6503 15C17.9818 14.3005 18.0218 13.4979 17.7616 12.7689C17.5014 12.0398 16.9623 11.444 16.2628 11.1125C15.5632 10.781 14.7607 10.7409 14.0316 11.0011C13.3026 11.2613 12.7068 11.8005 12.3753 12.5M24.4853 20.4733C24.1684 19.9042 23.7226 19.4173 23.1836 19.0517C26.5103 18.5233 28.3436 16.265 28.3436 14.1667V13.3333C28.3436 13.1123 28.2558 12.9004 28.0995 12.7441C27.9432 12.5878 27.7313 12.5 27.5103 12.5H21.1353C21.0181 11.9187 20.8177 11.3574 20.5403 10.8333H27.5103C28.1733 10.8333 28.8092 11.0967 29.278 11.5656C29.7469 12.0344 30.0103 12.6703 30.0103 13.3333V14.1667C30.0103 16.8117 28.0003 19.52 24.4853 20.4733ZM22.4886 20.6183C22.0332 20.2199 21.4487 20.0002 20.8436 20H9.17692C8.84837 19.9991 8.52288 20.0632 8.21917 20.1885C7.91546 20.3138 7.63951 20.4979 7.40719 20.7303C7.17487 20.9626 6.99076 21.2385 6.86543 21.5423C6.7401 21.846 6.67604 22.1714 6.67692 22.5V23.3333C6.67692 26.6183 9.77692 30 15.0103 30C20.2436 30 23.3436 26.6183 23.3436 23.3333V22.5C23.3436 21.75 23.0136 21.0767 22.4886 20.6167M8.34359 22.5C8.34359 22.279 8.43139 22.067 8.58766 21.9107C8.74395 21.7545 8.95591 21.6667 9.17692 21.6667H20.8436C21.0646 21.6667 21.2766 21.7545 21.4328 21.9107C21.5891 22.067 21.6769 22.279 21.6769 22.5V23.3333C21.6769 25.73 19.2903 28.3333 15.0103 28.3333C10.7303 28.3333 8.34359 25.73 8.34359 23.3333V22.5ZM21.6769 0C22.8925 0 24.0583 0.482886 24.9178 1.34243C25.7774 2.20197 26.2603 3.36776 26.2603 4.58333C26.2603 5.79891 25.7774 6.9647 24.9178 7.82424C24.0583 8.68378 22.8925 9.16667 21.6769 9.16667C20.4613 9.16667 19.2956 8.68378 18.436 7.82424C17.5765 6.9647 17.0936 5.79891 17.0936 4.58333C17.0936 3.36776 17.5765 2.20197 18.436 1.34243C19.2956 0.482886 20.4613 0 21.6769 0ZM21.6769 1.66667C20.9034 1.66667 20.1615 1.97396 19.6145 2.52094C19.0675 3.06792 18.7603 3.80979 18.7603 4.58333C18.7603 5.35688 19.0675 6.09875 19.6145 6.64573C20.1615 7.19271 20.9034 7.5 21.6769 7.5C22.4505 7.5 23.1923 7.19271 23.7393 6.64573C24.2863 6.09875 24.5936 5.35688 24.5936 4.58333C24.5936 3.80979 24.2863 3.06792 23.7393 2.52094C23.1923 1.97396 22.4505 1.66667 21.6769 1.66667Z" fill="currentColor"/>
</svg>
