<svg width="38" height="38" viewBox="0 0 38 38" fill="none" xmlns="http://www.w3.org/2000/svg">
<g filter="url(#filter0_d_16_857)">
<path d="M13.9375 0C13.291 0 12.671 0.256807 12.2139 0.713927C11.7568 1.17105 11.5 1.79103 11.5 2.4375V6.9375C11.5 7.08668 11.4407 7.22976 11.3352 7.33525C11.2298 7.44074 11.0867 7.5 10.9375 7.5H6.4375C5.79103 7.5 5.17105 7.75681 4.71393 8.21393C4.25681 8.67105 4 9.29103 4 9.9375V14.4375C4 14.7576 4.06305 15.0746 4.18554 15.3703C4.30804 15.666 4.48758 15.9347 4.71393 16.1611C4.94027 16.3874 5.20898 16.567 5.50471 16.6895C5.80044 16.812 6.1174 16.875 6.4375 16.875H18.4375C18.7576 16.875 19.0746 16.812 19.3703 16.6895C19.666 16.567 19.9347 16.3874 20.1611 16.1611C20.3874 15.9347 20.567 15.666 20.6895 15.3703C20.812 15.0746 20.875 14.7576 20.875 14.4375V9.9375C20.875 9.78832 20.9343 9.64524 21.0398 9.53975C21.1452 9.43426 21.2883 9.375 21.4375 9.375H25.9375C26.584 9.375 27.204 9.11819 27.6611 8.66107C28.1182 8.20395 28.375 7.58397 28.375 6.9375V2.4375C28.375 1.79103 28.1182 1.17105 27.6611 0.713927C27.204 0.256807 26.584 0 25.9375 0H13.9375ZM25.9375 7.5H20.875V1.875H25.9375C26.0867 1.875 26.2298 1.93426 26.3352 2.03975C26.4407 2.14524 26.5 2.28832 26.5 2.4375V6.9375C26.5 7.08668 26.4407 7.22976 26.3352 7.33525C26.2298 7.44074 26.0867 7.5 25.9375 7.5ZM19 7.5H13.375V2.4375C13.375 2.28832 13.4343 2.14524 13.5398 2.03975C13.6452 1.93426 13.7883 1.875 13.9375 1.875H19V7.5ZM11.5 9.375V15H6.4375C6.28832 15 6.14524 14.9407 6.03975 14.8352C5.93426 14.7298 5.875 14.5867 5.875 14.4375V9.9375C5.875 9.78832 5.93426 9.64524 6.03975 9.53975C6.14524 9.43426 6.28832 9.375 6.4375 9.375H11.5ZM13.375 9.375H19V14.4375C19 14.5867 18.9407 14.7298 18.8352 14.8352C18.7298 14.9407 18.5867 15 18.4375 15H13.375V9.375ZM27.0625 13.125H31.5625C31.8826 13.125 32.1996 13.188 32.4953 13.3105C32.791 13.433 33.0597 13.6126 33.2861 13.8389C33.5124 14.0653 33.692 14.334 33.8145 14.6297C33.937 14.9254 34 15.2424 34 15.5625V27.5625C34 27.8826 33.937 28.1996 33.8145 28.4953C33.692 28.791 33.5124 29.0597 33.2861 29.2861C33.0597 29.5124 32.791 29.692 32.4953 29.8145C32.1996 29.937 31.8826 30 31.5625 30H10.9375C10.6174 30 10.3004 29.937 10.0047 29.8145C9.70898 29.692 9.44027 29.5124 9.21393 29.2861C8.98758 29.0597 8.80804 28.791 8.68554 28.4953C8.56305 28.1996 8.5 27.8826 8.5 27.5625V23.0625C8.5 22.416 8.75681 21.796 9.21393 21.3389C9.67105 20.8818 10.291 20.625 10.9375 20.625H24.0625C24.2117 20.625 24.3548 20.5657 24.4602 20.4602C24.5657 20.3548 24.625 20.2117 24.625 20.0625V15.5625C24.625 14.916 24.8818 14.296 25.3389 13.8389C25.796 13.3818 26.416 13.125 27.0625 13.125ZM24.625 28.125V22.5H18.625V28.125H24.625ZM32.125 22.5H26.5V28.125H31.5625C31.7117 28.125 31.8548 28.0657 31.9602 27.9602C32.0657 27.8548 32.125 27.7117 32.125 27.5625V22.5ZM26.5 20.625H32.125V15.5625C32.125 15.4133 32.0657 15.2702 31.9602 15.1648C31.8548 15.0593 31.7117 15 31.5625 15H27.0625C26.9133 15 26.7702 15.0593 26.6648 15.1648C26.5593 15.2702 26.5 15.4133 26.5 15.5625V20.625ZM16.75 22.5H10.9375C10.7883 22.5 10.6452 22.5593 10.5398 22.6648C10.4343 22.7702 10.375 22.9133 10.375 23.0625V27.5625C10.375 27.873 10.627 28.125 10.9375 28.125H16.75V22.5Z" fill="currentColor"/>
</g>
<defs>
<filter id="filter0_d_16_857" x="0" y="0" width="38" height="38" filterUnits="userSpaceOnUse" color-interpolation-filters="sRGB">
<feFlood flood-opacity="0" result="BackgroundImageFix"/>
<feColorMatrix in="SourceAlpha" type="matrix" values="0 0 0 0 0 0 0 0 0 0 0 0 0 0 0 0 0 0 127 0" result="hardAlpha"/>
<feOffset dy="4"/>
<feGaussianBlur stdDeviation="2"/>
<feComposite in2="hardAlpha" operator="out"/>
<feColorMatrix type="matrix" values="0 0 0 0 0 0 0 0 0 0 0 0 0 0 0 0 0 0 0.25 0"/>
<feBlend mode="normal" in2="BackgroundImageFix" result="effect1_dropShadow_16_857"/>
<feBlend mode="normal" in="SourceGraphic" in2="effect1_dropShadow_16_857" result="shape"/>
</filter>
</defs>
</svg>
