<svg width="31" height="35" viewBox="0 0 31 35" fill="none" xmlns="http://www.w3.org/2000/svg">
<path d="M23.7151 16.05C23.2484 13.7755 21.9721 11.2613 20.0272 8.78544C18.0823 6.30954 15.9419 4.47416 13.8426 3.48205C11.7988 2.51614 9.96561 2.48256 8.81312 3.38787L4.97948 6.39931C3.82699 7.30463 3.42549 9.09363 3.87992 11.308C4.34668 13.5825 5.62296 16.0967 7.56785 18.5726C9.51274 21.0485 11.6532 22.8839 13.7524 23.876C15.7962 24.8419 17.6294 24.8755 18.7819 23.9702L22.6156 20.9588C23.7681 20.0534 24.1696 18.2644 23.7151 16.05ZM13.3211 4.58396C15.224 5.48232 17.2651 7.24211 19.0688 9.5383C20.8725 11.8345 22.0989 14.2342 22.5211 16.2957C22.8786 18.0399 22.639 19.3905 21.8627 20.0003C21.0864 20.6102 19.7175 20.5231 18.1076 19.7627C16.2047 18.8643 14.1636 17.1045 12.3599 14.8083C10.5562 12.5121 9.3298 10.1124 8.90763 8.05088C8.55005 6.30669 8.78967 4.9561 9.56599 4.34628C10.3423 3.73647 11.7112 3.8235 13.3211 4.58396ZM11.0307 15.0776L8.15542 17.3362C6.98667 15.7694 6.09167 14.1697 5.54075 12.6742L8.36807 10.4533C8.96588 11.9558 9.86436 13.5205 11.0307 15.0776ZM11.7835 16.036C13.0201 17.5379 14.3275 18.7813 15.6465 19.7173L12.8192 21.9383C11.4968 21.0489 10.1545 19.8005 8.90908 18.294L11.7835 16.036ZM5.73234 7.35773L7.56929 5.91474C7.49396 6.71121 7.5429 7.51454 7.71437 8.29597C7.77815 8.60405 7.85637 8.91627 7.94905 9.23265L5.15368 11.4285C5.12432 11.3056 5.09302 11.1868 5.07158 11.0642C4.7164 9.31813 4.95603 7.96754 5.73234 7.35773ZM14.2739 22.7741C14.1631 22.7217 14.0519 22.6657 13.9395 22.6081L16.7348 20.4122C17.0198 20.5767 17.3046 20.7266 17.5893 20.8621C18.307 21.2141 19.0751 21.4525 19.866 21.5688L18.0291 23.0118C17.2527 23.6216 15.8838 23.5346 14.2739 22.7741Z" fill="currentColor"/>
<path d="M26.8293 20.6655C24.7524 19.6276 21.9868 19.0781 18.8384 19.0781C15.6899 19.0781 12.9244 19.6276 10.8474 20.6655C8.82533 21.6761 7.6665 23.097 7.6665 24.5625V29.4375C7.6665 30.903 8.82533 32.3239 10.8474 33.3345C12.9244 34.3724 15.6899 34.9219 18.8384 34.9219C21.9868 34.9219 24.7524 34.3724 26.8293 33.3345C28.8514 32.3239 30.0103 30.903 30.0103 29.4375V24.5625C30.0103 23.097 28.8514 21.6761 26.8293 20.6655ZM11.3918 21.7563C13.2738 20.8148 15.9185 20.2969 18.8384 20.2969C21.7583 20.2969 24.403 20.8148 26.2849 21.7563C27.8774 22.5526 28.7915 23.5753 28.7915 24.5625C28.7915 25.5497 27.8774 26.5724 26.2849 27.3687C24.403 28.3102 21.7583 28.8281 18.8384 28.8281C15.9185 28.8281 13.2738 28.3102 11.3918 27.3687C9.79932 26.5724 8.88525 25.5497 8.88525 24.5625C8.88525 23.5753 9.79932 22.5526 11.3918 21.7563ZM18.229 30.0398V33.696C16.2749 33.6473 14.4641 33.3629 12.9478 32.8723V29.277C14.4986 29.7351 16.2841 29.9951 18.229 30.0398ZM19.4478 30.0398C21.3927 29.9951 23.1781 29.7351 24.729 29.276V32.8713C23.2127 33.3619 21.4018 33.6462 19.4478 33.695V30.0398ZM8.88525 29.4375V27.1016C9.46505 27.6528 10.127 28.1106 10.8474 28.4584C11.1291 28.5986 11.423 28.7299 11.729 28.8525V32.4072C11.6142 32.3544 11.5015 32.3056 11.3918 32.2467C9.79932 31.4474 8.88525 30.4247 8.88525 29.4375ZM26.2849 32.2437C26.1753 32.2985 26.0625 32.3513 25.9478 32.4041V28.8495C26.2531 28.7269 26.547 28.5955 26.8293 28.4554C27.5495 28.1084 28.2115 27.6517 28.7915 27.1016V29.4375C28.7915 30.4247 27.8774 31.4474 26.2849 32.2437Z" fill="currentColor"/>
</svg>
